<?xml version="1.0" encoding="UTF-8" standalone="no"?>
<svg width="118px" height="37px" viewBox="0 0 118 37" version="1.1" xmlns="http://www.w3.org/2000/svg" xmlns:xlink="http://www.w3.org/1999/xlink">
    <!-- Generator: Sketch 3.7.1 (28215) - http://www.bohemiancoding.com/sketch -->
    <title>Applogo</title>
    <desc>Created with Sketch.</desc>
    <defs></defs>
    <g id="Page-2" stroke="none" stroke-width="1" fill="none" fill-rule="evenodd">
        <path d="M10.0481232,14.05 C10.1181235,14.4466686 10.065624,14.8316648 9.89062316,15.205 C9.71562229,15.5783352 9.45895819,15.8641657 9.12062316,16.0625 C8.78228814,16.2608343 8.36229234,16.3366669 7.86062316,16.29 C7.35895399,16.2433331 6.80479286,15.9983356 6.19812316,15.555 C5.38145241,14.9483303 4.82145801,14.1725047 4.51812316,13.2275 C4.21478831,12.2824953 4.14478901,11.2850053 4.30812316,10.235 C4.47145731,9.18499475 4.86812001,8.1466718 5.49812316,7.12 C6.12812631,6.0933282 6.96811791,5.1833373 8.01812316,4.39 C9.06812841,3.5966627 10.3281158,2.9900021 11.7981232,2.57 C13.2681305,2.1499979 14.9364472,2.02166585 16.8031232,2.185 C17.9697957,2.30166725 18.973119,2.68083012 19.8131232,3.3225 C20.6531274,3.96416987 21.323954,4.83332785 21.8256232,5.93 C22.3272923,7.02667215 22.659789,8.31582593 22.8231232,9.7975 C22.9864573,11.2791741 22.9747908,12.8949913 22.7881232,14.645 C22.624789,16.1150073 22.4497908,17.5091601 22.2631232,18.8275 C22.0764556,20.1458399 21.9481235,21.3066616 21.8781232,22.31 C21.8081228,23.3133384 21.8314559,24.1066637 21.9481232,24.69 C22.0647904,25.2733362 22.3564542,25.565 22.8231232,25.565 C23.2664587,25.565 23.7156209,25.3608354 24.1706232,24.9525 C24.6256254,24.5441646 25.0689543,24.0308364 25.5006232,23.4125 C25.932292,22.7941636 26.3406212,22.1291702 26.7256232,21.4175 C27.1106251,20.7058298 27.4431218,20.0466697 27.7231232,19.44 C27.8397904,19.2066655 27.9622892,19.025834 28.0906232,18.8975 C28.2189571,18.769166 28.3239561,18.705 28.4056232,18.705 C28.4872902,18.705 28.5397897,18.7633327 28.5631232,18.88 C28.5864566,18.9966673 28.5397904,19.183332 28.4231232,19.44 C28.0964549,20.1400035 27.7464584,20.9274956 27.3731232,21.8025 C26.999788,22.6775044 26.5739589,23.4999961 26.0956232,24.27 C25.6172874,25.0400039 25.0689596,25.6874974 24.4506232,26.2125 C23.8322867,26.7375026 23.138127,27 22.3681232,27 C21.6214528,27 20.9972923,26.8075019 20.4956232,26.4225 C19.993954,26.0374981 19.5972913,25.4950035 19.3056232,24.795 C19.013955,24.0949965 18.8097904,23.2491716 18.6931232,22.2575 C18.5764559,21.2658284 18.5414563,20.1633394 18.5881232,18.95 C17.95812,19.1833345 17.1414615,19.3524995 16.1381232,19.4575 C15.1347848,19.5625005 13.8164647,19.4866679 12.1831232,19.23 C11.6231204,20.2800052 11.0339596,21.2774953 10.4156232,22.2225 C9.79728674,23.1675047 9.13812666,23.9958298 8.43812316,24.7075 C7.73811966,25.4191702 7.00896029,25.9791646 6.25062316,26.3875 C5.49228604,26.7958354 4.69312736,27 3.85312316,27 C2.73311756,27 1.88729269,26.7083363 1.31562316,26.125 C0.743953639,25.5416637 0.428956789,24.8241709 0.370623164,23.9725 C0.312289539,23.1208291 0.493121064,22.228338 0.913123164,21.295 C1.33312526,20.361662 1.95145241,19.5450035 2.76812316,18.845 C3.58479391,18.1449965 4.58811721,17.6433349 5.77812316,17.34 C6.96812911,17.0366652 8.32144891,17.1066644 9.83812316,17.55 C10.4914598,16.2899937 11.1622864,14.9950066 11.8506232,13.665 C12.5389599,12.3349933 13.2389529,11.0691727 13.9506232,9.8675 C14.6622934,8.66582733 15.3914528,7.5750049 16.1381232,6.595 C16.8847936,5.6149951 17.6431193,4.8450028 18.4131232,4.285 C17.9464542,3.70166375 17.3164605,3.3633338 16.5231232,3.27 C15.1231162,3.05999895 13.868962,3.1416648 12.7606232,3.515 C11.6522843,3.8883352 10.7072937,4.41916323 9.92562316,5.1075 C9.14395259,5.79583677 8.54312526,6.59499545 8.12312316,7.505 C7.70312106,8.41500455 7.48728989,9.30749563 7.47562316,10.1825 C7.46395644,11.0575044 7.66812106,11.8449965 8.08812316,12.545 C8.50812526,13.2450035 9.16145206,13.7466652 10.0481232,14.05 L10.0481232,14.05 Z M18.8681232,14.82 C18.961457,13.8166617 19.0606226,12.8366714 19.1656232,11.88 C19.2706237,10.9233286 19.340623,10.0191709 19.3756232,9.1675 C19.4106233,8.31582908 19.3872902,7.52833695 19.3056232,6.805 C19.2239561,6.08166305 19.0547911,5.45166935 18.7981232,4.915 C18.4714549,5.2416683 18.1039585,5.8483289 17.6956232,6.735 C17.2872878,7.6216711 16.8322923,8.67749387 16.3306232,9.9025 C15.828954,11.1275061 15.2806261,12.4574928 14.6856232,13.8925 C14.0906202,15.3275072 13.4431267,16.744993 12.7431232,18.145 C14.2597974,18.355001 15.4789519,18.395834 16.4006232,18.2675 C17.3222944,18.139166 18.0747869,17.9583345 18.6581232,17.725 C18.7047901,16.791662 18.7747894,15.8233384 18.8681232,14.82 L18.8681232,14.82 Z M3.46812316,25.775 C3.91145871,25.775 4.37228744,25.5883352 4.85062316,25.215 C5.32895889,24.8416648 5.81312071,24.3341699 6.30312316,23.6925 C6.79312561,23.0508301 7.28895399,22.2925044 7.79062316,21.4175 C8.29229234,20.5424956 8.79978726,19.6033384 9.31312316,18.6 C8.02978341,18.2733317 6.89812806,18.2266655 5.91812316,18.46 C4.93811826,18.6933345 4.11562649,19.0724974 3.45062316,19.5975 C2.78561984,20.1225026 2.28395819,20.7408298 1.94562316,21.4525 C1.60728814,22.1641702 1.43228989,22.8408301 1.42062316,23.4825 C1.40895644,24.1241699 1.57228814,24.6666644 1.91062316,25.11 C2.24895819,25.5533355 2.76811966,25.775 3.46812316,25.775 L3.46812316,25.775 Z M23.2343737,30.185 C23.9110437,29.0649944 24.6402031,27.9041727 25.4218737,26.7025 C26.2035443,25.5008273 27.0377026,24.2700063 27.9243737,23.01 C28.4843765,21.2833247 28.9918714,19.7083405 29.4468737,18.285 C29.901876,16.8616596 30.2577057,15.8116701 30.5143737,15.135 C30.6777078,14.6449975 30.9110388,14.1608357 31.2143737,13.6825 C31.5177085,13.2041643 31.8443719,12.7783352 32.1943737,12.405 C32.5443754,12.0316648 32.8885387,11.7341678 33.2268737,11.5125 C33.5652087,11.2908322 33.8452059,11.2033331 34.0668737,11.25 C34.2885415,11.2966669 34.4227068,11.5066648 34.4693737,11.88 C34.5160406,12.2533352 34.4343747,12.8366627 34.2243737,13.63 L33.6993737,15.52 C34.4693775,14.3533275 35.2743695,13.367504 36.1143737,12.5625 C36.9543779,11.757496 37.7943695,11.3083338 38.6343737,11.215 C39.427711,11.1449996 40.1160374,11.2908315 40.6993737,11.6525 C41.2827099,12.0141685 41.7027057,12.5858294 41.9593737,13.3675 C42.2160416,14.1491706 42.2743744,15.134994 42.1343737,16.325 C41.994373,17.5150059 41.5977103,18.8799923 40.9443737,20.42 C40.547705,21.353338 40.1277092,22.1699965 39.6843737,22.87 C39.2410381,23.5700035 38.7977092,24.1766641 38.3543737,24.69 C39.7543807,24.2933313 40.9210357,23.6516711 41.8543737,22.765 C42.7877117,21.8783289 43.557704,20.7700066 44.1643737,19.44 C44.3977082,18.9499976 44.6252059,18.6933335 44.8468737,18.67 C45.0685415,18.6466665 45.0743747,18.9033306 44.8643737,19.44 C44.4910385,20.3500045 44.0302098,21.2483289 43.4818737,22.135 C42.9335376,23.0216711 42.2510444,23.8149965 41.4343737,24.515 C40.6177029,25.2150035 39.6552126,25.7866644 38.5468737,26.23 C37.4385348,26.6733355 36.1377145,26.9066666 34.6443737,26.93 C33.8977033,27.0000003 33.2210434,26.8716683 32.6143737,26.545 C32.0777043,26.2649986 31.7218746,25.8975023 31.5468737,25.4425 C31.3718728,24.9874977 31.3135401,24.5441688 31.3718737,24.1125 C31.4302073,23.6808312 31.5877057,23.3016683 31.8443737,22.975 C32.1010416,22.6483317 32.4043719,22.4616669 32.7543737,22.415 C32.5910395,22.6483345 32.5093737,22.9749979 32.5093737,23.395 C32.5093737,23.6516679 32.6085394,23.8966655 32.8068737,24.13 C33.005208,24.3633345 33.2735387,24.4974998 33.6118737,24.5325 C33.9502087,24.5675002 34.3410381,24.4450014 34.7843737,24.165 C35.2277092,23.8849986 35.6943712,23.3600038 36.1843737,22.59 C36.5343754,22.0299972 36.8727054,21.41167 37.1993737,20.735 C37.526042,20.05833 37.8177057,19.3758368 38.0743737,18.6875 C38.3310416,17.9991632 38.5352063,17.3400032 38.6868737,16.71 C38.8385411,16.0799968 38.9377068,15.5200024 38.9843737,15.03 C39.0310406,14.2366627 38.8502091,13.7408343 38.4418737,13.5425 C38.0335383,13.3441657 37.5143768,13.4199982 36.8843737,13.77 C36.1377033,14.1900021 35.3910441,14.9191615 34.6443737,15.9575 C33.8977033,16.9958385 33.1977103,18.1099941 32.5443737,19.3 C32.2643723,20.2100046 31.9552087,21.1724949 31.6168737,22.1875 C31.2785387,23.2025051 30.9285422,24.2291615 30.5668737,25.2675 C30.2052052,26.3058385 29.8377089,27.3441615 29.4643737,28.3825 C29.0910385,29.4208385 28.7177089,30.406662 28.3443737,31.34 C27.8310378,32.6233398 27.2535436,33.6499961 26.6118737,34.42 C25.9702038,35.1900038 25.3518767,35.7208319 24.7568737,36.0125 C24.1618707,36.3041681 23.6135429,36.385834 23.1118737,36.2575 C22.6102045,36.129166 22.260208,35.8083359 22.0618737,35.295 C21.8635394,34.7816641 21.8402063,34.0933376 21.9918737,33.23 C22.1435411,32.3666624 22.5577036,31.3516725 23.2343737,30.185 L23.2343737,30.185 Z M25.0893737,31.025 C25.416042,30.1849958 25.7252056,29.3741706 26.0168737,28.5925 C26.3085418,27.8108294 26.5827057,27.0816701 26.8393737,26.405 C26.3960381,27.0350031 25.9527092,27.7174963 25.5093737,28.4525 C25.0660381,29.1875037 24.6227092,29.9283296 24.1793737,30.675 C23.572704,31.7250053 23.1935411,32.5416637 23.0418737,33.125 C22.8902063,33.7083363 22.8960395,34.0349997 23.0593737,34.105 C23.2227078,34.1750004 23.4910385,33.9650024 23.8643737,33.475 C24.2377089,32.9849976 24.6460381,32.168339 25.0893737,31.025 L25.0893737,31.025 Z M39.6756242,30.185 C40.3522943,29.0649944 41.0814536,27.9041727 41.8631242,26.7025 C42.6447948,25.5008273 43.4789531,24.2700063 44.3656242,23.01 C44.925627,21.2833247 45.4331219,19.7083405 45.8881242,18.285 C46.3431265,16.8616596 46.6989563,15.8116701 46.9556242,15.135 C47.1189584,14.6449975 47.3522894,14.1608357 47.6556242,13.6825 C47.9589591,13.2041643 48.2856225,12.7783352 48.6356242,12.405 C48.985626,12.0316648 49.3297892,11.7341678 49.6681242,11.5125 C50.0064592,11.2908322 50.2864564,11.2033331 50.5081242,11.25 C50.729792,11.2966669 50.8639573,11.5066648 50.9106242,11.88 C50.9572911,12.2533352 50.8756253,12.8366627 50.6656242,13.63 L50.1406242,15.52 C50.9106281,14.3533275 51.71562,13.367504 52.5556242,12.5625 C53.3956284,11.757496 54.23562,11.3083338 55.0756242,11.215 C55.8689615,11.1449996 56.557288,11.2908315 57.1406242,11.6525 C57.7239605,12.0141685 58.1439563,12.5858294 58.4006242,13.3675 C58.6572922,14.1491706 58.7156249,15.134994 58.5756242,16.325 C58.4356235,17.5150059 58.0389608,18.8799923 57.3856242,20.42 C56.9889556,21.353338 56.5689598,22.1699965 56.1256242,22.87 C55.6822887,23.5700035 55.2389598,24.1766641 54.7956242,24.69 C56.1956312,24.2933313 57.3622862,23.6516711 58.2956242,22.765 C59.2289622,21.8783289 59.9989545,20.7700066 60.6056242,19.44 C60.8389587,18.9499976 61.0664564,18.6933335 61.2881242,18.67 C61.509792,18.6466665 61.5156253,18.9033306 61.3056242,19.44 C60.932289,20.3500045 60.4714603,21.2483289 59.9231242,22.135 C59.3747881,23.0216711 58.692295,23.8149965 57.8756242,24.515 C57.0589535,25.2150035 56.0964631,25.7866644 54.9881242,26.23 C53.8797853,26.6733355 52.578965,26.9066666 51.0856242,26.93 C50.3389538,27.0000003 49.6622939,26.8716683 49.0556242,26.545 C48.5189549,26.2649986 48.1631251,25.8975023 47.9881242,25.4425 C47.8131233,24.9874977 47.7547906,24.5441688 47.8131242,24.1125 C47.8714578,23.6808312 48.0289563,23.3016683 48.2856242,22.975 C48.5422922,22.6483317 48.8456225,22.4616669 49.1956242,22.415 C49.0322901,22.6483345 48.9506242,22.9749979 48.9506242,23.395 C48.9506242,23.6516679 49.0497899,23.8966655 49.2481242,24.13 C49.4464585,24.3633345 49.7147892,24.4974998 50.0531242,24.5325 C50.3914592,24.5675002 50.7822887,24.4450014 51.2256242,24.165 C51.6689598,23.8849986 52.1356218,23.3600038 52.6256242,22.59 C52.975626,22.0299972 53.3139559,21.41167 53.6406242,20.735 C53.9672925,20.05833 54.2589563,19.3758368 54.5156242,18.6875 C54.7722922,17.9991632 54.9764568,17.3400032 55.1281242,16.71 C55.2797916,16.0799968 55.3789573,15.5200024 55.4256242,15.03 C55.4722911,14.2366627 55.2914596,13.7408343 54.8831242,13.5425 C54.4747888,13.3441657 53.9556274,13.4199982 53.3256242,13.77 C52.5789538,14.1900021 51.8322946,14.9191615 51.0856242,15.9575 C50.3389538,16.9958385 49.6389608,18.1099941 48.9856242,19.3 C48.7056228,20.2100046 48.3964592,21.1724949 48.0581242,22.1875 C47.7197892,23.2025051 47.3697927,24.2291615 47.0081242,25.2675 C46.6464557,26.3058385 46.2789594,27.3441615 45.9056242,28.3825 C45.532289,29.4208385 45.1589594,30.406662 44.7856242,31.34 C44.2722883,32.6233398 43.6947941,33.6499961 43.0531242,34.42 C42.4114543,35.1900038 41.7931272,35.7208319 41.1981242,36.0125 C40.6031212,36.3041681 40.0547934,36.385834 39.5531242,36.2575 C39.051455,36.129166 38.7014585,35.8083359 38.5031242,35.295 C38.3047899,34.7816641 38.2814568,34.0933376 38.4331242,33.23 C38.5847916,32.3666624 38.9989542,31.3516725 39.6756242,30.185 L39.6756242,30.185 Z M41.5306242,31.025 C41.8572925,30.1849958 42.1664561,29.3741706 42.4581242,28.5925 C42.7497923,27.8108294 43.0239563,27.0816701 43.2806242,26.405 C42.8372887,27.0350031 42.3939598,27.7174963 41.9506242,28.4525 C41.5072887,29.1875037 41.0639598,29.9283296 40.6206242,30.675 C40.0139545,31.7250053 39.6347916,32.5416637 39.4831242,33.125 C39.3314568,33.7083363 39.3372901,34.0349997 39.5006242,34.105 C39.6639584,34.1750004 39.932289,33.9650024 40.3056242,33.475 C40.6789594,32.9849976 41.0872887,32.168339 41.5306242,31.025 L41.5306242,31.025 Z M71.6218747,7.785 C71.0618719,8.6716711 70.5018775,9.52916253 69.9418747,10.3575 C69.3818719,11.1858375 68.8510439,11.961663 68.3493747,12.685 C67.8477056,13.408337 67.3868768,14.0558305 66.9668747,14.6275 C66.5468726,15.1991695 66.2202092,15.6483317 65.9868747,15.975 C65.6135395,17.2350063 65.3277091,18.4308277 65.1293747,19.5625 C64.9310404,20.6941723 64.8202082,21.6799958 64.7968747,22.52 C64.7735413,23.3600042 64.8435406,24.0249975 65.0068747,24.515 C65.1702089,25.0050025 65.4385395,25.25 65.8118747,25.25 C66.2085434,25.25 66.6518723,25.0400021 67.1418747,24.62 C67.6318772,24.1999979 68.1102057,23.6866697 68.5768747,23.08 C69.0435437,22.4733303 69.4693728,21.8375033 69.8543747,21.1725 C70.2393767,20.5074967 70.5368737,19.9300024 70.7468747,19.44 C70.8402085,19.2066655 70.9510408,19.0200007 71.0793747,18.88 C71.2077087,18.7399993 71.3185409,18.6641667 71.4118747,18.6525 C71.5052085,18.6408333 71.5635413,18.699166 71.5868747,18.8275 C71.6102082,18.955834 71.563542,19.1599986 71.4468747,19.44 C71.2368737,19.9300024 70.9393767,20.5949958 70.5543747,21.435 C70.1693728,22.2750042 69.7027108,23.1091625 69.1543747,23.9375 C68.6060387,24.7658375 68.0052113,25.4833303 67.3518747,26.09 C66.6985381,26.6966697 66.0102117,27 65.2868747,27 C64.1202022,27 63.2627108,26.5216714 62.7143747,25.565 C62.1660387,24.6083286 61.8802082,23.3366746 61.8568747,21.75 C61.8335413,20.1633254 62.0435392,18.3433436 62.4868747,16.29 C62.9302103,14.2366564 63.5718705,12.1016777 64.4118747,9.885 C65.1585451,7.9249902 65.9927035,6.28583993 66.9143747,4.9675 C67.836046,3.64916007 68.7343704,2.6400035 69.6093747,1.94 C70.4843791,1.2399965 71.266038,0.849167075 71.9543747,0.7675 C72.6427115,0.685832925 73.1327066,0.895830825 73.4243747,1.3975 C73.7160429,1.89916917 73.739376,2.6866613 73.4943747,3.76 C73.2493735,4.8333387 72.6252131,6.17499195 71.6218747,7.785 L71.6218747,7.785 Z M66.8268747,13.28 C67.3635441,12.5333296 67.9118719,11.7166711 68.4718747,10.83 C69.0318775,9.9433289 69.5802054,9.0566711 70.1168747,8.17 C71.1435465,6.46665815 71.7968733,5.148338 72.0768747,4.215 C72.3568761,3.281662 72.374376,2.80333345 72.1293747,2.78 C71.8843735,2.75666655 71.4352113,3.21749528 70.7818747,4.1625 C70.1285381,5.10750473 69.405212,6.59498985 68.6118747,8.625 L67.0018747,12.825 L66.8268747,13.28 Z M79.2781253,11.005 C79.7681277,11.0516669 80.1939568,11.2091653 80.5556253,11.4775 C80.9172937,11.7458347 81.2264573,12.0433317 81.4831253,12.37 C81.7397932,12.3933335 82.0664566,12.4866659 82.4631253,12.65 C83.0464615,12.9300014 83.460624,13.3849968 83.7056253,14.015 C83.9506265,14.6450032 84.0614587,15.362496 84.0381253,16.1675 C84.0147918,16.972504 83.8631267,17.8358287 83.5831253,18.7575 C83.3031239,19.6791713 82.9414608,20.5833289 82.4981253,21.47 C83.0347946,21.5166669 83.6531218,21.3941681 84.3531253,21.1025 C85.0531288,20.8108319 85.5897901,20.2566708 85.9631253,19.44 C86.103126,19.1133317 86.2489578,18.8683342 86.4006253,18.705 C86.5522927,18.5416659 86.6689582,18.46 86.7506253,18.46 C86.8322923,18.46 86.8731253,18.5416659 86.8731253,18.705 C86.8731253,18.8683342 86.803126,19.1133317 86.6631253,19.44 C86.4764577,19.8133352 86.2547932,20.2449975 85.9981253,20.735 C85.7414573,21.2250025 85.4089606,21.6683313 85.0006253,22.065 C84.5922899,22.4616687 84.1022948,22.7708322 83.5306253,22.9925 C82.9589557,23.2141678 82.2881291,23.2550007 81.5181253,23.115 C81.0514563,23.79167 80.5381281,24.4099972 79.9781253,24.97 C79.4181225,25.5300028 78.8289617,25.9849982 78.2106253,26.335 C77.5922888,26.6850017 76.9564619,26.9008329 76.3031253,26.9825 C75.6497887,27.0641671 74.9964619,26.976668 74.3431253,26.72 C73.4097873,26.3466648 72.7506272,25.6875047 72.3656253,24.7425 C71.9806233,23.7974953 71.8114584,22.7241727 71.8581253,21.5225 C71.9047922,20.3208273 72.1381232,19.0725065 72.5581253,17.7775 C72.9781274,16.4824935 73.5264552,15.3158385 74.2031253,14.2775 C74.8797953,13.2391615 75.6556209,12.4050031 76.5306253,11.775 C77.4056296,11.1449968 78.3214538,10.8883327 79.2781253,11.005 L79.2781253,11.005 Z M80.3631253,22.73 C79.5931214,22.3566648 79.0039606,21.8141702 78.5956253,21.1025 C78.1872899,20.3908298 77.9306258,19.6208375 77.8256253,18.7925 C77.7206247,17.9641625 77.7497911,17.1241709 77.9131253,16.2725 C78.0764594,15.4208291 78.3564566,14.6800032 78.7531253,14.05 C78.1231221,14.4700021 77.5397946,15.0299965 77.0031253,15.73 C76.4664559,16.4300035 76.0114605,17.1941625 75.6381253,18.0225 C75.2647901,18.8508375 74.9847929,19.6908291 74.7981253,20.5425 C74.6114577,21.3941709 74.5239585,22.1699965 74.5356253,22.87 C74.547292,23.5700035 74.675624,24.1591643 74.9206253,24.6375 C75.1656265,25.1158357 75.5564559,25.3899996 76.0931253,25.46 C76.8631291,25.5766673 77.6156216,25.3666693 78.3506253,24.83 C79.0856289,24.2933307 79.7564556,23.5933376 80.3631253,22.73 L80.3631253,22.73 Z M82.2181253,14.085 C81.8214566,13.8749989 81.4656268,13.8633324 81.1506253,14.05 C80.8356237,14.2366676 80.5789596,14.5399979 80.3806253,14.96 C80.1822909,15.3800021 80.0422923,15.8758305 79.9606253,16.4475 C79.8789582,17.0191695 79.8731249,17.5966638 79.9431253,18.18 C80.0131256,18.7633363 80.1589575,19.3116641 80.3806253,19.825 C80.602293,20.3383359 80.9231232,20.7466652 81.3431253,21.05 C81.7164605,20.3266631 82.0314573,19.5858371 82.2881253,18.8275 C82.5447932,18.0691629 82.7197915,17.3633366 82.8131253,16.71 C82.9064591,16.0566634 82.9064591,15.496669 82.8131253,15.03 C82.7197915,14.563331 82.5214601,14.2483342 82.2181253,14.085 L82.2181253,14.085 Z M98.4843758,18.53 C98.0877071,19.7433394 97.6910444,20.9274942 97.2943758,22.0825 C96.8977071,23.2375058 96.4893779,24.3516613 96.0693758,25.425 C97.3293821,24.8183303 98.3443719,24.0016718 99.1143758,22.975 C99.8843796,21.9483282 100.572706,20.7700066 101.179376,19.44 C101.34271,19.0899983 101.494375,18.8216676 101.634376,18.635 C101.774376,18.4483324 101.891042,18.355 101.984376,18.355 C102.07771,18.355 102.118543,18.4424991 102.106876,18.6175 C102.095209,18.7925009 102.019376,19.0666648 101.879376,19.44 C101.506041,20.3266711 101.115211,21.1608294 100.706876,21.9425 C100.29854,22.7241706 99.8377117,23.4416634 99.3243758,24.095 C98.8110399,24.7483366 98.2393789,25.3258308 97.6093758,25.8275 C96.9793726,26.3291692 96.2560465,26.7316651 95.4393758,27.035 L95.0193758,27.98 C94.1093712,29.9866767 93.0127155,31.5266613 91.7293758,32.6 C90.446036,33.6733387 89.0927162,34.1750004 87.6693758,34.105 C86.7593712,34.0583331 86.0243786,33.7783359 85.4643758,33.265 C84.904373,32.7516641 84.5485432,32.133337 84.3968758,31.41 C84.2452084,30.686663 84.3035411,29.9283373 84.5718758,29.135 C84.8402105,28.3416627 85.3243723,27.6358364 86.0243758,27.0175 C86.7243793,26.3991636 87.6635366,25.9441681 88.8418758,25.6525 C90.020215,25.3608319 91.4377008,25.3433321 93.0943758,25.6 C93.4210441,24.7833293 93.7185411,24.0191702 93.9868758,23.3075 C94.2552105,22.5958298 94.4827082,22.0183355 94.6693758,21.575 C94.4593747,22.0650025 94.1968774,22.5316644 93.8818758,22.975 C93.5668742,23.4183355 93.2110444,23.7974984 92.8143758,24.1125 C92.4177071,24.4275016 91.9918781,24.6724991 91.5368758,24.8475 C91.0818735,25.0225009 90.6210448,25.0866669 90.1543758,25.04 C89.3143716,24.9699997 88.6552115,24.6025033 88.1768758,23.9375 C87.6985401,23.2724967 87.4068763,22.4500049 87.3018758,21.47 C87.1968753,20.4899951 87.2727078,19.4283391 87.5293758,18.285 C87.7860437,17.1416609 88.2177061,16.0683384 88.8243758,15.065 C89.4310455,14.0616616 90.2068711,13.1983369 91.1518758,12.475 C92.0968805,11.751663 93.2227026,11.3200007 94.5293758,11.18 C95.4860472,11.0633328 96.3552052,11.174165 97.1368758,11.5125 C97.9185464,11.850835 98.4377078,12.2999972 98.6943758,12.86 C98.8343765,13.1400014 98.9160423,13.4783313 98.9393758,13.875 C98.9627092,14.2716687 98.8927099,14.6449983 98.7293758,14.995 C98.5660416,15.3450017 98.2860444,15.6249989 97.8893758,15.835 C97.4927071,16.045001 96.9327127,16.1033338 96.2093758,16.01 C96.2560427,15.4499972 96.1160441,14.9950018 95.7893758,14.645 C95.4627075,14.2949982 94.9727124,14.1433331 94.3193758,14.19 C93.6427057,14.2600003 93.0243786,14.5399976 92.4643758,15.03 C91.904373,15.5200024 91.4202112,16.1033299 91.0118758,16.78 C90.6035404,17.4566701 90.2827103,18.1858294 90.0493758,18.9675 C89.8160413,19.7491706 89.681876,20.4666634 89.6468758,21.12 C89.6118756,21.7733366 89.6760416,22.3158312 89.8393758,22.7475 C90.0027099,23.1791688 90.2943737,23.395 90.7143758,23.395 C91.2043782,23.395 91.6768735,23.1850021 92.1318758,22.765 C92.5868781,22.3449979 93.0068739,21.8316697 93.3918758,21.225 C93.7768777,20.6183303 94.1210409,19.9591702 94.4243758,19.2475 C94.7277106,18.5358298 94.9843747,17.9000028 95.1943758,17.34 C95.3343765,16.9433313 95.6143737,16.6983338 96.0343758,16.605 C96.4543779,16.5116662 96.8685404,16.5349993 97.2768758,16.675 C97.6852112,16.8150007 98.0235411,17.0483317 98.2918758,17.375 C98.5602105,17.7016683 98.6243765,18.0866645 98.4843758,18.53 L98.4843758,18.53 Z M92.1843758,27.735 C92.2310427,27.5949993 92.2835422,27.4550007 92.3418758,27.315 C92.4002094,27.1749993 92.4643754,27.0466672 92.5343758,26.93 C91.8343723,26.7666659 91.1752122,26.7841657 90.5568758,26.9825 C89.9385394,27.1808343 89.3843782,27.4841646 88.8943758,27.8925 C88.4043733,28.3008354 87.9960441,28.7616641 87.6693758,29.275 C87.3427075,29.7883359 87.1152098,30.2841643 86.9868758,30.7625 C86.8585418,31.2408357 86.841042,31.6608315 86.9343758,32.0225 C87.0277096,32.3841685 87.2610406,32.6116662 87.6343758,32.705 C87.9610441,32.7750003 88.3227071,32.6933345 88.7193758,32.46 C89.1160444,32.2266655 89.5127071,31.8825023 89.9093758,31.4275 C90.3060444,30.9724977 90.7027071,30.4300032 91.0993758,29.8 C91.4960444,29.1699969 91.8577075,28.4816704 92.1843758,27.735 L92.1843758,27.735 Z M109.710626,11.005 C110.200629,11.0516669 110.626458,11.2091653 110.988126,11.4775 C111.349795,11.7458347 111.658958,12.0433317 111.915626,12.37 C112.172294,12.3933335 112.498958,12.4866659 112.895626,12.65 C113.478963,12.9300014 113.893125,13.3849968 114.138126,14.015 C114.383128,14.6450032 114.49396,15.362496 114.470626,16.1675 C114.447293,16.972504 114.295628,17.8358287 114.015626,18.7575 C113.735625,19.6791713 113.373962,20.5833289 112.930626,21.47 C113.467296,21.5166669 114.085623,21.3941681 114.785626,21.1025 C115.48563,20.8108319 116.022291,20.2566708 116.395626,19.44 C116.535627,19.1133317 116.681459,18.8683342 116.833126,18.705 C116.984794,18.5416659 117.101459,18.46 117.183126,18.46 C117.264793,18.46 117.305626,18.5416659 117.305626,18.705 C117.305626,18.8683342 117.235627,19.1133317 117.095626,19.44 C116.908959,19.8133352 116.687294,20.2449975 116.430626,20.735 C116.173958,21.2250025 115.841462,21.6683313 115.433126,22.065 C115.024791,22.4616687 114.534796,22.7708322 113.963126,22.9925 C113.391457,23.2141678 112.72063,23.2550007 111.950626,23.115 C111.483957,23.79167 110.970629,24.4099972 110.410626,24.97 C109.850624,25.5300028 109.261463,25.9849982 108.643126,26.335 C108.02479,26.6850017 107.388963,26.9008329 106.735626,26.9825 C106.08229,27.0641671 105.428963,26.976668 104.775626,26.72 C103.842288,26.3466648 103.183128,25.6875047 102.798126,24.7425 C102.413124,23.7974953 102.243959,22.7241727 102.290626,21.5225 C102.337293,20.3208273 102.570624,19.0725065 102.990626,17.7775 C103.410628,16.4824935 103.958956,15.3158385 104.635626,14.2775 C105.312296,13.2391615 106.088122,12.4050031 106.963126,11.775 C107.838131,11.1449968 108.753955,10.8883327 109.710626,11.005 L109.710626,11.005 Z M110.795626,22.73 C110.025622,22.3566648 109.436462,21.8141702 109.028126,21.1025 C108.619791,20.3908298 108.363127,19.6208375 108.258126,18.7925 C108.153126,17.9641625 108.182292,17.1241709 108.345626,16.2725 C108.50896,15.4208291 108.788958,14.6800032 109.185626,14.05 C108.555623,14.4700021 107.972296,15.0299965 107.435626,15.73 C106.898957,16.4300035 106.443962,17.1941625 106.070626,18.0225 C105.697291,18.8508375 105.417294,19.6908291 105.230626,20.5425 C105.043959,21.3941709 104.95646,22.1699965 104.968126,22.87 C104.979793,23.5700035 105.108125,24.1591643 105.353126,24.6375 C105.598128,25.1158357 105.988957,25.3899996 106.525626,25.46 C107.29563,25.5766673 108.048123,25.3666693 108.783126,24.83 C109.51813,24.2933307 110.188957,23.5933376 110.795626,22.73 L110.795626,22.73 Z M112.650626,14.085 C112.253958,13.8749989 111.898128,13.8633324 111.583126,14.05 C111.268125,14.2366676 111.011461,14.5399979 110.813126,14.96 C110.614792,15.3800021 110.474793,15.8758305 110.393126,16.4475 C110.311459,17.0191695 110.305626,17.5966638 110.375626,18.18 C110.445627,18.7633363 110.591459,19.3116641 110.813126,19.825 C111.034794,20.3383359 111.355624,20.7466652 111.775626,21.05 C112.148962,20.3266631 112.463958,19.5858371 112.720626,18.8275 C112.977294,18.0691629 113.152293,17.3633366 113.245626,16.71 C113.33896,16.0566634 113.33896,15.496669 113.245626,15.03 C113.152293,14.563331 112.953961,14.2483342 112.650626,14.085 L112.650626,14.085 Z" id="Applogo" fill="#FFFFFF"></path>
    </g>
</svg>